<svg viewBox="0 0 1060 560" xmlns="http://www.w3.org/2000/svg" font-family="-apple-system, BlinkMacSystemFont, 'Segoe UI', Roboto, Helvetica, Arial, sans-serif">
<rect x="0" y="0" width="1060" height="560" fill="#0d1117"/>
<style>.t{font-size:15px;font-weight:600;fill:#fff}.n{font-size:13px;font-weight:600;fill:#e6edf3}.d{font-size:11.5px;fill:#8b949e}</style>
<text x="330" y="22" class="d" text-anchor="middle">Tests for the Listings lane, widest tier runs most often</text>
<polygon points="330,34 394.0,126 266.0,126" fill="#161b22" stroke="#e3b341" stroke-width="1.6" stroke-linejoin="round"/>
<text x="330" y="118" class="n" text-anchor="middle">1</text>
<line x1="398.0" y1="91.03999999999999" x2="414.0" y2="91.03999999999999" stroke="#30363d" stroke-width="1.2"/>
<text x="422.0" y="95.03999999999999" class="d"><tspan fill="#e3b341" font-weight="600" font-size="13">End to end</tspan> · PropertyListingsEndToEndTests · live endpoint, own scheme</text>
<polygon points="266.0,132 394.0,132 458.0,224 202.0,224" fill="#161b22" stroke="#f78166" stroke-width="1.6" stroke-linejoin="round"/>
<text x="330" y="172" class="t" text-anchor="middle" fill="#f78166">UI</text>
<text x="330" y="194" class="n" text-anchor="middle">3</text>
<line x1="462.0" y1="189.04" x2="478.0" y2="189.04" stroke="#30363d" stroke-width="1.2"/>
<text x="486.0" y="193.04" class="d">PropertyListingsUITests · launch arguments, iOS 18.2 simulator</text>
<polygon points="202.0,230 458.0,230 522.0,322 138.0,322" fill="#161b22" stroke="#d2a8ff" stroke-width="1.6" stroke-linejoin="round"/>
<text x="330" y="270" class="t" text-anchor="middle" fill="#d2a8ff">Snapshot</text>
<text x="330" y="292" class="n" text-anchor="middle">10 references</text>
<line x1="526.0" y1="287.04" x2="542.0" y2="287.04" stroke="#30363d" stroke-width="1.2"/>
<text x="550.0" y="291.04" class="d">ListingsUITests · 5 states, light and dark, iPhone 17</text>
<polygon points="138.0,328 522.0,328 586.0,420 74.0,420" fill="#161b22" stroke="#58a6ff" stroke-width="1.6" stroke-linejoin="round"/>
<text x="330" y="368" class="t" text-anchor="middle" fill="#58a6ff">Acceptance and root service</text>
<text x="330" y="390" class="n" text-anchor="middle">33</text>
<line x1="590.0" y1="385.04" x2="606.0" y2="385.04" stroke="#30363d" stroke-width="1.2"/>
<text x="614.0" y="389.04" class="d">PropertyListingsTests · real composition, stubs at the edges</text>
<polygon points="74.0,426 586.0,426 650.0,518 10.0,518" fill="#161b22" stroke="#3fb950" stroke-width="1.6" stroke-linejoin="round"/>
<text x="330" y="466" class="t" text-anchor="middle" fill="#3fb950">Unit</text>
<text x="330" y="488" class="n" text-anchor="middle">88 Listings · 34 shared</text>
<line x1="654.0" y1="483.04" x2="670.0" y2="483.04" stroke="#30363d" stroke-width="1.2"/>
<text x="678.0" y="487.04" class="d">Modules/Listings/Tests · Modules/Shared/*/Tests</text>
</svg>